<svg width="39" height="40" viewBox="0 0 39 40" fill="none" xmlns="http://www.w3.org/2000/svg">
<path d="M14.9582 26.6504H29.2078C29.7832 26.6504 30.3096 26.1858 30.3096 25.5204C30.3096 24.8675 29.7832 24.4029 29.2078 24.4029H15.2398C14.6522 24.4029 14.2849 23.9886 14.1992 23.3482L14.0156 22.0424H29.3058C31.1788 22.0424 32.1704 20.8747 32.4397 18.9663L33.3578 12.6758C33.3823 12.5126 33.4068 12.2991 33.4068 12.161C33.4068 11.4202 32.9049 10.918 32.0602 10.918H12.4364L12.2528 9.56196C12.0936 8.4696 11.6652 7.91714 10.3063 7.91714H6.10734C5.49525 7.91714 4.9566 8.4696 4.9566 9.10995C4.9566 9.76285 5.49525 10.3153 6.10734 10.3153H9.93906L11.8366 23.5993C12.1059 25.4953 13.0852 26.6504 14.9582 26.6504ZM30.8605 13.1655L30.0892 18.7402C29.9913 19.3806 29.6608 19.7824 29.0609 19.7824L13.6973 19.7949L12.7547 13.1655H30.8605ZM15.9621 32.9534C17.1495 32.9534 18.1044 31.9741 18.1044 30.7562C18.1044 29.5382 17.1495 28.5589 15.9621 28.5589C14.7746 28.5589 13.8197 29.5382 13.8197 30.7562C13.8197 31.9741 14.7746 32.9534 15.9621 32.9534ZM27.2736 32.9534C28.4611 32.9534 29.4037 31.9741 29.4037 30.7562C29.4037 29.5382 28.4611 28.5589 27.2736 28.5589C26.0861 28.5589 25.119 29.5382 25.119 30.7562C25.119 31.9741 26.0861 32.9534 27.2736 32.9534Z" fill="black"/>
</svg>
