<svg width="61" height="15" viewBox="0 0 61 15" fill="none" xmlns="http://www.w3.org/2000/svg">
<path fill-rule="evenodd" clip-rule="evenodd" d="M3.75041 13.8232H0.737122V0.699951H3.75041V13.8232ZM11.2733 0.699951H8.32541C8.32541 3.11496 7.21452 5.33155 5.27769 6.78172L4.10977 7.65595L8.63509 13.8237H12.3558L8.19187 8.14843C10.1656 6.18396 11.2733 3.54103 11.2733 0.699951ZM16.0796 13.8196H13.2339V0.702465H16.0796V13.8196ZM24.6773 4.74594V5.32638C23.9095 4.80282 22.9827 4.49514 21.9831 4.49514C19.3376 4.49514 17.193 6.63871 17.193 9.28296C17.193 11.9272 19.3376 14.0708 21.9831 14.0708C22.9827 14.0708 23.9095 13.7631 24.6773 13.2397V13.8196H27.3954V4.74594H24.6773ZM24.6691 9.283C24.6691 10.5723 23.5664 11.6176 22.2062 11.6176C20.8461 11.6176 19.7434 10.5723 19.7434 9.283C19.7434 7.99368 20.8461 6.94868 22.2062 6.94868C23.5664 6.94868 24.6691 7.99368 24.6691 9.283ZM53.3516 5.32638V4.74594H56.0695V13.8196H53.3516V13.2397C52.5838 13.7631 51.657 14.0708 50.6572 14.0708C48.0117 14.0708 45.8671 11.9272 45.8671 9.28296C45.8671 6.63871 48.0117 4.49514 50.6572 4.49514C51.657 4.49514 52.5838 4.80282 53.3516 5.32638ZM50.8804 11.6176C52.2406 11.6176 53.3432 10.5723 53.3432 9.283C53.3432 7.99368 52.2406 6.94868 50.8804 6.94868C49.5202 6.94868 48.4176 7.99368 48.4176 9.283C48.4176 10.5723 49.5202 11.6176 50.8804 11.6176ZM41.0373 4.50189C39.9515 4.50189 38.924 4.83881 38.237 5.76833V4.74648H35.5308V13.8196H38.2702V9.05135C38.2702 7.67155 39.196 6.99587 40.3106 6.99587C41.5051 6.99587 42.1918 7.70912 42.1918 9.03257V13.8196H44.9066V8.04947C44.9066 5.93791 43.2269 4.50189 41.0373 4.50189ZM31.5999 4.7461V5.92788C32.1448 5.219 33.16 4.74663 34.2637 4.74663V7.38691L34.2559 7.38668L34.2486 7.38632L34.2414 7.38597L34.2314 7.38572C33.156 7.38572 31.6061 8.154 31.6061 9.58327V13.8196H28.8172V4.7461H31.5999ZM57.2491 12.3062C57.2491 11.3645 58.0127 10.6013 58.9547 10.6013C59.8966 10.6013 60.6604 11.3645 60.6604 12.3062C60.6604 13.2475 59.8966 14.0109 58.9547 14.0109C58.0127 14.0109 57.2491 13.2475 57.2491 12.3062Z" fill="#17120F"/>
</svg>
