<svg width="22" height="22" viewBox="0 0 22 22" fill="none" xmlns="http://www.w3.org/2000/svg">
<path d="M9.07918 17.9886C10.9135 17.9886 12.6324 17.44 14.0629 16.5029L19.1159 21.52C19.4504 21.84 19.8773 22 20.3388 22C21.2963 22 22 21.2571 22 20.32C22 19.8857 21.85 19.4629 21.527 19.1429L16.5087 14.1486C17.5469 12.6857 18.1584 10.9143 18.1584 8.99429C18.1584 4.04571 14.0745 0 9.07918 0C4.09544 0 0 4.04571 0 8.99429C0 13.9429 4.0839 17.9886 9.07918 17.9886ZM9.07918 15.5886C5.42213 15.5886 2.42265 12.6171 2.42265 8.99429C2.42265 5.37143 5.42213 2.4 9.07918 2.4C12.7362 2.4 15.7357 5.37143 15.7357 8.99429C15.7357 12.6171 12.7362 15.5886 9.07918 15.5886Z" fill="black"/>
</svg>
