<svg width="48" height="45" viewBox="0 0 48 45" fill="none" xmlns="http://www.w3.org/2000/svg">
<path d="M6.18868 8.38961H30.7983C31.4644 8.38961 32 7.84416 32 7.19481C32 6.51948 31.4644 6 30.7983 6H6.18868C5.5225 6 5 6.53247 5 7.19481C5 7.84416 5.5225 8.38961 6.18868 8.38961ZM6.18868 15.1948H30.7983C31.4644 15.1948 32 14.6494 32 14C32 13.3247 31.4644 12.8052 30.7983 12.8052H6.18868C5.5225 12.8052 5 13.3377 5 14C5 14.6494 5.5225 15.1948 6.18868 15.1948ZM6.18868 22H30.7983C31.4644 22 32 21.4545 32 20.8052C32 20.1429 31.4644 19.6104 30.7983 19.6104H6.18868C5.5225 19.6104 5 20.1429 5 20.8052C5 21.4545 5.5225 22 6.18868 22Z" fill="black"/>
</svg>
