<svg width="51" height="17" viewBox="0 0 51 17" fill="none" xmlns="http://www.w3.org/2000/svg">
<path fill-rule="evenodd" clip-rule="evenodd" d="M13.4161 16.6305H9.09607L5.85654 4.15269C5.70278 3.57871 5.37629 3.07128 4.89605 2.83212C3.69755 2.2311 2.37688 1.75279 0.936157 1.51155V1.03115H7.89546C8.85595 1.03115 9.57631 1.75279 9.69637 2.59088L11.3772 11.5916L15.6952 1.03115H19.8952L13.4161 16.6305ZM22.2964 16.6305H18.2165L21.5761 1.03115H25.656L22.2964 16.6305ZM30.9345 5.35265C31.0545 4.51248 31.7749 4.03208 32.6153 4.03208C33.936 3.91146 35.3746 4.1527 36.5752 4.75164L37.2956 1.39302C36.095 0.912625 34.7743 0.671387 33.5758 0.671387C29.6159 0.671387 26.7344 2.83213 26.7344 5.83097C26.7344 8.11233 28.7755 9.3102 30.2162 10.0318C31.7749 10.7514 32.3752 11.2318 32.2551 11.9513C32.2551 13.0307 31.0545 13.5111 29.856 13.5111C28.4153 13.5111 26.9746 13.1513 25.656 12.5503L24.9356 15.911C26.3764 16.5099 27.9351 16.7511 29.3758 16.7511C33.8159 16.8697 36.5752 14.711 36.5752 11.4709C36.5752 7.3907 30.9345 7.15154 30.9345 5.35265V5.35265ZM50.854 16.6305L47.6145 1.03115H44.1348C43.4145 1.03115 42.6941 1.51155 42.454 2.2311L36.4552 16.6305H40.6552L41.4935 14.3512H46.654L47.1342 16.6305H50.854ZM44.7351 5.23204L45.9336 11.1112H42.574L44.7351 5.23204Z" fill="#172B85"/>
</svg>
